<svg width="12" height="17" viewBox="0 0 12 17" fill="none" xmlns="http://www.w3.org/2000/svg">
<path fill-rule="evenodd" clip-rule="evenodd" d="M10.85 15.9045C10.6014 16.2359 10.1313 16.303 9.79996 16.0545L1.7255 9.99867C0.862751 9.35161 0.862753 8.05749 1.7255 7.41043L9.79996 1.35458C10.1313 1.10606 10.6014 1.17321 10.85 1.50458C11.0985 1.83595 11.0313 2.30605 10.7 2.55458L4.22549 7.41043C3.36274 8.05749 3.36274 9.35161 4.22549 9.99867L10.7 14.8545C11.0313 15.103 11.0985 15.5731 10.85 15.9045Z" fill="#7056DA"/>
<path fill-rule="evenodd" clip-rule="evenodd" d="M11.3676 16.2927C10.9047 16.91 10.029 17.0351 9.41172 16.5722L1.33726 10.5163C0.129416 9.61043 0.129419 7.79866 1.33726 6.89278L9.41173 0.836935C10.029 0.373992 10.9047 0.499087 11.3676 1.11635C11.8305 1.7336 11.7055 2.60928 11.0882 3.07222L4.61372 7.92808C4.09607 8.31631 4.09607 9.09278 4.61372 9.48102L11.0882 14.3369C11.7054 14.7998 11.8305 15.6755 11.3676 16.2927ZM10.1882 15.5369C10.2337 15.571 10.2982 15.5618 10.3323 15.5163C10.3664 15.4708 10.3572 15.4063 10.3117 15.3722L3.83725 10.5163C2.62941 9.61043 2.6294 7.79867 3.83725 6.89278L10.3117 2.03693C10.3572 2.00282 10.3664 1.9383 10.3323 1.89282C10.2982 1.84734 10.2337 1.83812 10.1882 1.87223L2.11373 7.92808C1.59608 8.31631 1.59608 9.09278 2.11373 9.48102L10.1882 15.5369Z" fill="#7056DA"/>
</svg>
